<svg width="48.297974" height="8.193359" viewBox="0 0 48.298 8.19336" fill="none" xmlns="http://www.w3.org/2000/svg" xmlns:xlink="http://www.w3.org/1999/xlink">
	<desc>
			Created with Pixso.
	</desc>
	<defs>
		<linearGradient x1="0.343750" y1="4.331787" x2="47.983364" y2="4.331787" id="paint_linear_10_222_0" gradientUnits="userSpaceOnUse">
			<stop stop-color="#0CBAF1"/>
			<stop offset="1.000000" stop-color="#E95CE9"/>
		</linearGradient>
	</defs>
	<mask id="mask10_215" mask-type="alpha" maskUnits="userSpaceOnUse" x="0.000000" y="0.000000" width="48.297974" height="8.193359">
		<path id="Vector" d="M0 4.64L47.88 0L48.29 3.54L0.41 8.19L0 4.64Z" fill="#000000" fill-opacity="1.000000" fill-rule="nonzero"/>
	</mask>
	<g mask="url(#mask10_215)">
		<mask id="mask10_219" mask-type="alpha" maskUnits="userSpaceOnUse" x="0.000000" y="0.000000" width="48.297974" height="8.193359">
			<path id="Vector" d="M0 4.64L47.88 0L48.29 3.54L0.41 8.19L0 4.64Z" fill="#000000" fill-opacity="1.000000" fill-rule="nonzero"/>
		</mask>
		<g mask="url(#mask10_219)">
			<path id="Vector" d="M43.81 2.7C43.3 2.73 42.79 2.75 42.28 2.78C41.12 2.84 39.96 2.89 38.81 2.96C37.94 3.02 37.07 3.13 36.21 3.24C35.98 3.27 35.75 3.26 35.52 3.29C33.36 3.63 31.18 3.73 29.02 4.02C28.04 4.15 27.06 4.22 26.08 4.38C23.92 4.72 21.73 4.93 19.57 5.25C18.12 5.46 16.68 5.67 15.23 5.88C13.76 6.09 12.29 6.3 10.82 6.51C9.64 6.68 8.46 6.86 7.28 7.04C6.7 7.13 6.1 7.15 5.52 7.21C4.44 7.32 3.38 7.49 2.3 7.57C2.14 7.6 1.98 7.59 1.83 7.54C1.66 7.48 1.46 7.54 1.27 7.55L0.34 7.58C0.56 7.49 0.8 7.44 1.04 7.44C1.26 7.42 1.42 7.37 1.43 7.13C1.43 7.11 1.46 7.08 1.51 7.03L0.37 7.14C0.55 7 0.6 6.98 1.13 6.93C1.39 6.92 1.64 6.89 1.89 6.82C2.14 6.74 2.34 6.57 2.63 6.54C2.53 6.46 2.44 6.5 2.32 6.47C2.7 6.4 3.03 6.34 3.36 6.28C3.41 6.27 3.48 6.27 3.51 6.22C3.56 6.14 3.31 6.01 3.58 5.97C3.7 5.95 3.7 5.77 3.84 5.72C3.91 5.7 3.97 5.65 3.93 5.58C3.9 5.5 3.81 5.54 3.75 5.55C3.3 5.6 2.85 5.65 2.4 5.71C2.24 5.74 2.07 5.73 1.92 5.67C2.08 5.64 2.24 5.62 2.4 5.59C2.57 5.56 2.74 5.52 2.91 5.49C3.72 5.36 4.53 5.22 5.35 5.1C6.7 4.88 8.05 4.68 9.4 4.47C10.41 4.31 11.41 4.14 12.42 4C13.15 3.9 13.87 3.78 14.59 3.67C15.33 3.56 16.07 3.43 16.82 3.32C17.58 3.21 18.35 3.09 19.12 2.99C19.91 2.88 20.7 2.78 21.49 2.66C22.88 2.46 24.28 2.33 25.67 2.17C27.23 2.01 28.79 1.85 30.35 1.7C31.61 1.59 32.87 1.49 34.13 1.38C34.99 1.31 35.85 1.26 36.7 1.22C38.37 1.15 40.04 1.04 41.71 0.98C43.6 0.92 45.5 0.9 47.39 0.85C47.59 0.85 47.78 0.87 47.98 0.91C47.69 0.94 47.41 0.98 47.12 0.99C46.52 1.01 45.91 0.97 45.31 1.03C44.52 1.1 43.73 1.02 42.95 1.12C42.51 1.17 42.07 1.2 41.63 1.2C41.61 1.2 41.58 1.2 41.56 1.21C41.23 1.48 40.81 1.34 40.44 1.41C40.01 1.49 39.58 1.55 39.14 1.58C37.73 1.68 36.31 1.78 34.9 1.9C33.2 2.04 31.5 2.17 29.81 2.38C29.71 2.39 29.59 2.37 29.51 2.47C29.61 2.55 29.72 2.52 29.82 2.51C31.09 2.44 32.36 2.36 33.63 2.27C33.97 2.25 34.3 2.24 34.64 2.2C35.07 2.17 35.49 2.18 35.92 2.23C36.03 2.24 36.15 2.25 36.27 2.24C37.85 2.12 39.44 2.08 41.03 1.98C41.39 1.94 41.75 1.93 42.11 1.95C42.49 2 42.89 1.95 43.26 2.13C43.52 2.23 43.79 2.27 44.08 2.22C44.21 2.21 44.35 2.21 44.48 2.25C44.35 2.33 44.21 2.36 44.06 2.34C43.99 2.34 43.92 2.35 43.86 2.37C43.62 2.44 43.61 2.47 43.79 2.64C43.8 2.66 43.8 2.68 43.81 2.7L43.81 2.7ZM16.68 6C16.58 5.95 16.47 5.92 16.36 5.91C16.24 5.9 16.13 5.91 16.02 5.94C15.75 6 15.47 6.04 15.2 6.07C14.17 6.19 13.15 6.36 12.13 6.5C9.46 6.88 6.78 7.28 4.1 7.59C4.03 7.6 3.95 7.59 3.92 7.65C3.93 7.67 3.95 7.7 3.97 7.72C3.99 7.74 4.01 7.76 4.03 7.77C4.06 7.79 4.09 7.8 4.12 7.8C4.15 7.8 4.18 7.8 4.21 7.8C4.59 7.74 4.97 7.71 5.35 7.66C7.49 7.38 9.61 7.02 11.76 6.79C11.86 6.78 11.96 6.75 12.06 6.74C12.86 6.63 13.65 6.46 14.45 6.36C15.11 6.28 15.76 6.18 16.41 6.08C16.51 6.08 16.6 6.05 16.67 5.99L16.68 6ZM15.02 6.19C14.98 6.22 14.95 6.23 14.9 6.24C14.86 6.24 14.82 6.23 14.78 6.21C14.86 6.18 14.93 6.17 15.02 6.19ZM16.67 5.99C16.75 6.02 16.83 6.02 16.91 6C17.42 5.93 17.94 5.85 18.45 5.78C19.68 5.61 20.91 5.45 22.13 5.29C22.45 5.25 22.77 5.21 23.1 5.16C23.01 5.12 22.91 5.1 22.8 5.1C22.7 5.1 22.6 5.12 22.5 5.16C22.26 5.24 21.98 5.22 21.71 5.25C21.34 5.28 20.98 5.33 20.62 5.4C20.34 5.48 20.06 5.5 19.77 5.45L20.3 5.37C19.7 5.41 19.11 5.49 18.51 5.59C18 5.65 17.49 5.73 16.98 5.79C16.89 5.81 16.8 5.82 16.71 5.85C16.62 5.88 16.63 5.94 16.68 6L16.67 5.99ZM18.1 5.71C18.32 5.64 18.55 5.61 18.78 5.63C18.56 5.69 18.33 5.72 18.1 5.71L18.1 5.71ZM35.61 3.62L37.93 3.4L37.93 3.38L35.61 3.6L35.61 3.62ZM44.88 2.59C44.92 2.68 45.01 2.67 45.09 2.66C45.31 2.65 45.53 2.62 45.74 2.58L44.88 2.59L44.88 2.59ZM22.32 5.1L21.55 5.17L21.55 5.2L22.33 5.12L22.32 5.1ZM44.88 2.59C44.52 2.62 44.15 2.57 43.81 2.7C43.81 2.7 43.81 2.7 43.81 2.7C44.17 2.71 44.53 2.67 44.88 2.59L44.88 2.59ZM34.12 3.76L34.59 3.72L34.59 3.7L34.11 3.75L34.12 3.76ZM29.99 4.16L29.52 4.21L29.52 4.23L29.99 4.18L29.99 4.16ZM25.13 4.75C24.94 4.78 24.8 4.74 24.68 4.81C24.84 4.84 24.99 4.82 25.13 4.75ZM30.41 4.13L30.82 4.09C30.68 4.08 30.54 4.09 30.41 4.13ZM24.92 4.92L25.31 4.88C25.18 4.87 25.04 4.79 24.92 4.92ZM32.25 3.92C32.11 3.92 31.99 3.95 31.87 4.01C32.02 3.98 32.12 4 32.25 3.92ZM34.96 3.69C35.04 3.7 35.11 3.69 35.19 3.65C35.11 3.66 35.02 3.64 34.96 3.69L34.96 3.69ZM23.97 4.9C24.01 4.9 24.01 4.88 23.96 4.86L23.62 4.91C23.79 4.91 23.88 4.91 23.97 4.9ZM23.82 5.03C23.95 5.04 24.08 5.03 24.19 4.98C24.04 4.99 23.95 4.94 23.82 5.03ZM28.3 4.39C28.23 4.38 28.17 4.38 28.12 4.41C28.18 4.42 28.24 4.43 28.3 4.39ZM26.37 4.59L26.54 4.57L26.37 4.57L26.37 4.59ZM31.45 4.03C31.47 4.04 31.5 4.04 31.53 4.04C31.56 4.03 31.58 4.02 31.6 4.01C31.55 4 31.49 3.98 31.45 4.03L31.45 4.03ZM29.19 4.24C29.16 4.24 29.14 4.24 29.12 4.24C29.11 4.25 29.09 4.25 29.08 4.26L29.14 4.27C29.16 4.26 29.17 4.25 29.19 4.24L29.19 4.24Z" fill="url(#paint_linear_10_222_0)" fill-opacity="1.000000" fill-rule="nonzero"/>
		</g>
	</g>
</svg>
