<svg width="42.000000" height="42.000000" viewBox="0 0 42 42" fill="none" xmlns="http://www.w3.org/2000/svg" xmlns:xlink="http://www.w3.org/1999/xlink">
	<desc>
			Created with Pixso.
	</desc>
	<defs>
		<clipPath id="clip43_1539">
			<rect id="Icon/Outline/cloud" rx="-0.450000" width="18.100000" height="18.100000" transform="translate(11.450000 11.450000)" fill="white" fill-opacity="0"/>
		</clipPath>
		<linearGradient x1="0.000000" y1="21.000000" x2="42.000000" y2="21.000000" id="paint_linear_43_1538_0" gradientUnits="userSpaceOnUse">
			<stop stop-color="#0CBAF1"/>
			<stop offset="1.000000" stop-color="#E95CE9"/>
		</linearGradient>
	</defs>
	<circle id="BG" cx="21.000000" cy="21.000000" r="21.000000" fill="#18181B" fill-opacity="1.000000"/>
	<circle id="BG" cx="21.000000" cy="21.000000" r="20.250000" stroke="url(#paint_linear_43_1538_0)" stroke-opacity="1.000000" stroke-width="1.500000"/>
	<g clip-path="url(#clip43_1539)">
		<path id="Icon" d="M13.37 22.87C13.37 21.36 14.43 20.1 15.84 19.78C15.78 19.5 15.75 19.21 15.75 18.91C15.75 16.73 17.52 14.95 19.7 14.95C21.62 14.95 23.22 16.31 23.58 18.12C23.61 18.12 23.64 18.12 23.66 18.12C25.85 18.12 27.62 19.89 27.62 22.08C27.62 24.26 25.85 26.04 23.66 26.04L16.54 26.04C14.79 26.04 13.37 24.62 13.37 22.87Z" stroke="#D4D4D8" stroke-opacity="1.000000" stroke-width="1.500000" stroke-linejoin="round"/>
	</g>
</svg>
