<svg width="41.000000" height="41.000000" viewBox="0 0 41 41" fill="none" xmlns="http://www.w3.org/2000/svg" xmlns:xlink="http://www.w3.org/1999/xlink">
	<desc>
			Created with Pixso.
	</desc>
	<defs>
		<clipPath id="clip77_3475">
			<rect id="place (2) 2" rx="0.000000" width="19.000000" height="19.000000" transform="translate(11.500000 10.500000)" fill="white" fill-opacity="0"/>
		</clipPath>
		<linearGradient x1="0.000000" y1="20.500000" x2="41.000000" y2="20.500000" id="paint_linear_77_3474_0" gradientUnits="userSpaceOnUse">
			<stop stop-color="#0CBAF1"/>
			<stop offset="1.000000" stop-color="#E95CE9"/>
		</linearGradient>
	</defs>
	<circle id="Ellipse 12" cx="20.500000" cy="20.500000" r="20.500000" fill="url(#paint_linear_77_3474_0)" fill-opacity="1.000000"/>
	<rect id="place (2) 2" rx="0.000000" width="19.000000" height="19.000000" transform="translate(11.500000 10.500000)" fill="#FFFFFF" fill-opacity="0"/>
	<g clip-path="url(#clip77_3475)">
		<path id="Vector" d="M21 10C16.77 10 13.34 13.43 13.34 17.65C13.34 19 13.7 20.33 14.37 21.49C14.53 21.76 14.7 22.03 14.9 22.28L20.66 30L21.33 30L27.09 22.28C27.29 22.03 27.46 21.76 27.62 21.49C28.29 20.33 28.65 19 28.65 17.65C28.65 13.43 25.22 10 21 10ZM21 20.19C19.59 20.19 18.46 19.05 18.46 17.65C18.46 16.25 19.59 15.11 21 15.11C22.4 15.11 23.53 16.25 23.53 17.65C23.53 19.05 22.4 20.19 21 20.19Z" fill="#FFFFFF" fill-opacity="1.000000" fill-rule="nonzero"/>
	</g>
</svg>
